<svg width="24" height="24" viewBox="0 0 24 24" fill="none" xmlns="http://www.w3.org/2000/svg">
<path d="M17.9007 5.62405H5.47571V18.049H17.9007V5.62405Z" fill="white"/>
<path fill-rule="evenodd" clip-rule="evenodd" d="M8.79991 1.55315C10.279 -0.517718 13.3569 -0.517718 14.8361 1.55315L15.0716 1.88284C15.3319 2.24731 15.769 2.44246 16.2141 2.39301L17.2637 2.27637C19.6261 2.0139 21.6221 4.00994 21.3596 6.37221L21.243 7.42187C21.1936 7.867 21.3887 8.30409 21.7531 8.56442L22.0829 8.79991C24.1537 10.279 24.1537 13.3569 22.0829 14.8361L21.7531 15.0716C21.3887 15.3319 21.1936 15.769 21.243 16.2141L21.3596 17.2637C21.6221 19.6261 19.6261 21.6221 17.2637 21.3596L16.2141 21.243C15.769 21.1936 15.3319 21.3887 15.0716 21.7531L14.8361 22.0829C13.3569 24.1537 10.2792 24.1537 8.79991 22.0829L8.56442 21.7531C8.30409 21.3887 7.867 21.1936 7.42186 21.243L6.37221 21.3596C4.00994 21.6221 2.0139 19.6261 2.27637 17.2637L2.39301 16.2141C2.44246 15.769 2.24731 15.3319 1.88284 15.0716L1.55315 14.8361C-0.517718 13.3569 -0.517718 10.2792 1.55315 8.79991L1.88284 8.56442C2.24731 8.30409 2.44246 7.867 2.39301 7.42186L2.27637 6.37221C2.0139 4.00994 4.00994 2.0139 6.37221 2.27637L7.42187 2.39301C7.867 2.44246 8.30409 2.24731 8.56442 1.88284L8.79991 1.55315ZM16.4011 8.47118C16.8839 8.95399 16.8839 9.7368 16.4011 10.2196L11.6798 14.9409C11.0734 15.5475 10.09 15.5475 9.48361 14.9409L7.23486 12.6922C6.75206 12.2094 6.75206 11.4266 7.23486 10.9438C7.71768 10.461 8.50047 10.461 8.98328 10.9438L10.5817 12.5422L14.6528 8.47118C15.1355 7.98837 15.9184 7.98837 16.4011 8.47118Z" fill="#22CB00"/>
</svg>
